<?xml version="1.0" encoding="utf-8"?>
<!-- Generator: Adobe Illustrator 27.8.0, SVG Export Plug-In . SVG Version: 6.00 Build 0)  -->
<svg version="1.1" id="Layer_1" xmlns="http://www.w3.org/2000/svg" xmlns:xlink="http://www.w3.org/1999/xlink" x="0px" y="0px"
	 viewBox="0 0 548.8 456" style="enable-background:new 0 0 548.8 456;" xml:space="preserve">
<style type="text/css">
	.st0{opacity:0.36;}
	.st1{fill:#FF00FF;}
	.st2{fill:none;stroke:#FF00FF;stroke-miterlimit:10;}
	.st3{opacity:0.8;}
	.st4{fill:#5FFFFF;}
	.st5{fill:none;stroke:#5FFFFF;stroke-miterlimit:10;}
</style>
<g>
	<g id="Layer_2_00000096046415179048008280000003452309273851626129_">
		<g id="OBJECTS">
			<g>
				<g class="st0">
					<rect x="176.7" y="441.1" class="st1" width="5.9" height="5.3"/>
					<rect x="176.7" y="449" class="st1" width="5.9" height="5.3"/>
					<rect x="13.3" y="284.4" class="st2" width="16.4" height="14.9"/>
					<rect x="103" y="391.7" class="st2" width="11.2" height="10.2"/>
					<rect x="27.1" y="446.2" class="st2" width="5.2" height="4.7"/>
				</g>
				<g class="st3">
					<rect x="175.5" y="442.8" class="st4" width="5.9" height="5.3"/>
					<rect x="175.5" y="450.7" class="st4" width="5.9" height="5.3"/>
					<rect x="11.6" y="286.6" class="st5" width="16.4" height="14.9"/>
					<rect x="101.3" y="393.8" class="st5" width="11.2" height="10.2"/>
					<rect x="25.4" y="448.3" class="st5" width="5.2" height="4.7"/>
				</g>
			</g>
			<g>
				<g class="st0">
					<rect x="4.2" y="127.7" class="st1" width="5.9" height="5.4"/>
					<rect x="1.2" y="130.4" class="st1" width="5.9" height="5.4"/>
					<rect x="14.9" y="37.1" class="st2" width="16.5" height="15"/>
					<rect x="156.6" y="181.5" class="st2" width="5.3" height="4.8"/>
					<rect x="105.3" y="80.6" class="st2" width="5.3" height="4.8"/>
				</g>
				<g class="st3">
					<rect x="3" y="129.4" class="st4" width="5.9" height="5.4"/>
					<rect y="132.1" class="st4" width="5.9" height="5.4"/>
					<rect x="13.2" y="39.2" class="st5" width="16.5" height="15"/>
					<rect x="154.9" y="183.7" class="st5" width="5.3" height="4.8"/>
					<rect x="103.6" y="82.8" class="st5" width="5.3" height="4.8"/>
				</g>
			</g>
			<g>
				<g class="st0">
					<rect x="541.8" y="440.1" class="st1" width="5.9" height="5.3"/>
					<rect x="541.8" y="448" class="st1" width="5.9" height="5.3"/>
					<rect x="378.5" y="283.4" class="st2" width="16.4" height="14.9"/>
					<rect x="250.7" y="247.2" class="st2" width="11.2" height="10.2"/>
					<rect x="308.6" y="396.9" class="st2" width="9.7" height="8.8"/>
				</g>
				<g class="st3">
					<rect x="540.6" y="441.8" class="st4" width="5.9" height="5.3"/>
					<rect x="540.6" y="449.7" class="st4" width="5.9" height="5.3"/>
					<rect x="376.7" y="285.6" class="st5" width="16.4" height="14.9"/>
					<rect x="249" y="249.4" class="st5" width="11.2" height="10.2"/>
					<rect x="306.9" y="399" class="st5" width="9.7" height="8.8"/>
				</g>
			</g>
			<g>
				<g class="st0">
					<rect x="541.3" y="158" class="st1" width="5.9" height="5.3"/>
					<rect x="541.3" y="165.9" class="st1" width="5.9" height="5.3"/>
					<rect x="377.9" y="1.3" class="st2" width="16.4" height="14.9"/>
					<rect x="467.6" y="108.6" class="st2" width="11.2" height="10.2"/>
					<rect x="391.6" y="163.1" class="st2" width="5.2" height="4.7"/>
				</g>
				<g class="st3">
					<rect x="540.1" y="159.7" class="st4" width="5.9" height="5.3"/>
					<rect x="540.1" y="167.6" class="st4" width="5.9" height="5.3"/>
					<rect x="376.2" y="3.5" class="st5" width="16.4" height="14.9"/>
					<rect x="465.9" y="110.8" class="st5" width="11.2" height="10.2"/>
					<rect x="389.9" y="165.2" class="st5" width="5.2" height="4.7"/>
				</g>
			</g>
		</g>
	</g>
</g>
</svg>
