<?xml version="1.0" encoding="UTF-8"?>
<svg id="Layer_1" data-name="Layer 1" xmlns="http://www.w3.org/2000/svg" viewBox="0 0 107.39 80.5">
  <defs>
    <style>
      .cls-1 {
        fill: #fff;
        stroke-width: 0px;
      }
    </style>
  </defs>
  <path class="cls-1" d="m0,61.77c.09,7.15,6.81,11.39,12.89,13.43,3.79,1.27,8.08,1.89,11.51-.63,3.01-2.21,4.52-5.63,5.9-8.99,6.46-15.72,10.44-32.4,11.94-49.32.18-2.09.33-4.18.44-6.27.09-1.79.17-3.56-.29-5.31-.94-3.6-4.42-6.01-7.95-3.86-6.57,4.01-6.26,13.45-5.72,20.08.35,4.33,1.02,8.65,2.02,12.89.84,3.55,1.86,7.16,3.66,10.36s4.27,5.63,7.62,6.87,7.16.66,10.41-.84c7-3.23,11.48-10.37,14.75-17.03,3.53-7.21,5.9-14.9,7.99-22.62.51-1.9,1.01-3.81,1.5-5.72.7-2.69-3.18-4.46-4.57-1.93-9.15,16.67-12.55,35.55-14.54,54.26-.56,5.27-1.01,10.54-1.45,15.82-.11,1.35,1.23,2.5,2.5,2.5,1.45,0,2.39-1.15,2.5-2.5,1.51-18.06,3.1-36.39,9.12-53.62,1.68-4.81,3.74-9.47,6.19-13.94l-4.57-1.93c-1.76,6.78-3.54,13.57-5.99,20.14-2.28,6.09-5.17,12.59-9.62,17.43-3.5,3.81-9.45,7.9-14.47,4.26-2.03-1.48-3.35-3.89-4.24-6.19-1.21-3.11-1.97-6.41-2.61-9.68-.71-3.6-1.15-7.24-1.34-10.91-.15-2.94-.24-5.96.55-8.83.32-1.15.78-2.3,1.51-3.25.33-.43.77-.95,1.24-1.25,1.1-.71.04.05.15-.34,0,0,.4.65.47.86.18.56.25.96.27,1.51.09,1.69-.1,3.41-.21,5.1-.95,14.72-3.94,29.29-8.77,43.23-1.25,3.61-2.52,7.3-4.2,10.75-1.36,2.8-3.16,5.38-6.62,5.03-3.1-.32-6.41-1.76-8.99-3.48-2.14-1.43-3.94-3.48-3.97-6.07-.04-3.21-5.04-3.22-5,0H0Z"/>
  <path class="cls-1" d="m94.05,4.43c.75,3.45-1.68,6.82-3.75,9.34-2.63,3.19-5.44,6.24-8.26,9.26s-5.77,6.06-8.76,8.99c-1.42,1.39-2.81,2.83-4.31,4.13-.76.66-2.24,1.93-3.27,1.33l1.24,2.16c0,.06-.4.89-.45.79-.02-.04.57-.13.39-.11.79-.09,1.16.07,2,.33,1.63.5,3.16,1.21,4.63,2.07,3.11,1.84,5.76,4.32,8.12,7.04,5.1,5.88,8.54,12.95,12.78,19.43,2.51,3.83,5.3,7.51,8.67,10.63,2.36,2.18,5.9-1.35,3.54-3.54-12.63-11.68-16.5-31.88-33.29-39.28-2.04-.9-4.32-1.85-6.59-1.68-2.54.19-4.6,1.63-4.79,4.31-.06.86.52,1.74,1.24,2.16,4.45,2.58,8.59-1.35,11.61-4.26,3.58-3.45,7.07-6.99,10.47-10.62s6.64-7.06,9.59-10.87,5.08-8.09,4.03-12.93c-.68-3.14-5.5-1.81-4.82,1.33h0Z"/>
</svg>