<?xml version="1.0" encoding="UTF-8"?>
<svg xmlns="http://www.w3.org/2000/svg" viewBox="0 0 687.54 455.99">
  <defs>
    <style>
      .cls-1 {
        stroke: #f0f;
      }

      .cls-1, .cls-2 {
        fill: none;
        stroke-miterlimit: 10;
      }

      .cls-2 {
        stroke: #5fffff;
      }

      .cls-3 {
        mix-blend-mode: difference;
        opacity: .8;
      }

      .cls-4 {
        opacity: .36;
      }

      .cls-5 {
        isolation: isolate;
      }

      .cls-6 {
        fill: #5fffff;
      }

      .cls-6, .cls-7 {
        stroke-width: 0px;
      }

      .cls-7 {
        fill: #f0f;
      }
    </style>
  </defs>
  <g class="cls-5">
    <g id="Layer_2" data-name="Layer 2">
      <g id="OBJECTS">
        <g>
          <g class="cls-4">
            <rect class="cls-7" x="67.12" y="275.33" width="11.76" height="10.68" transform="translate(145.99 561.33) rotate(180)"/>
            <rect class="cls-7" x="58.67" y="430.62" width="7.35" height="6.67" transform="translate(124.69 867.91) rotate(180)"/>
            <rect class="cls-7" x="55" y="427.28" width="7.35" height="6.67" transform="translate(117.34 861.23) rotate(180)"/>
            <rect class="cls-7" x="277.88" y="253.52" width="11.76" height="10.68" transform="translate(567.52 517.71) rotate(180)"/>
            <rect class="cls-7" x="320.69" y="441.09" width="5.88" height="5.34" transform="translate(647.26 887.51) rotate(180)"/>
            <rect class="cls-7" x="320.69" y="448.98" width="5.88" height="5.34" transform="translate(647.26 903.3) rotate(180)"/>
            <rect class="cls-1" x="157.31" y="284.42" width="16.36" height="14.85" transform="translate(330.98 583.69) rotate(180)"/>
            <rect class="cls-1" x="29.54" y="248.21" width="11.21" height="10.18" transform="translate(70.29 506.6) rotate(180)"/>
            <rect class="cls-1" x="49.7" y="344.2" width="11.21" height="10.18" transform="translate(110.61 698.59) rotate(180)"/>
            <rect class="cls-1" x="247.03" y="391.7" width="11.21" height="10.18" transform="translate(505.28 793.58) rotate(180)"/>
            <rect class="cls-1" x="208.13" y="433.33" width="5.22" height="4.74" transform="translate(421.48 871.4) rotate(180)"/>
            <rect class="cls-1" x="246.7" y="327.48" width="5.22" height="4.74" transform="translate(498.63 659.7) rotate(180)"/>
            <rect class="cls-1" x="244.46" y="307.51" width="9.71" height="8.82" transform="translate(498.63 623.84) rotate(180)"/>
            <rect class="cls-1" x="168.81" y="402.33" width="9.71" height="8.82" transform="translate(347.34 813.47) rotate(180)"/>
            <rect class="cls-1" x="322.02" y="293.73" width="9.71" height="8.82" transform="translate(653.75 596.29) rotate(180)"/>
          </g>
          <g class="cls-3">
            <rect class="cls-6" x="65.92" y="277" width="11.76" height="10.68" transform="translate(143.59 564.68) rotate(180)"/>
            <rect class="cls-6" x="57.47" y="432.29" width="7.35" height="6.67" transform="translate(122.29 871.25) rotate(180)"/>
            <rect class="cls-6" x="53.8" y="428.95" width="7.35" height="6.67" transform="translate(114.94 864.58) rotate(180)"/>
            <rect class="cls-6" x="276.68" y="255.19" width="11.76" height="10.68" transform="translate(565.12 521.05) rotate(180)"/>
            <rect class="cls-6" x="319.49" y="442.76" width="5.88" height="5.34" transform="translate(644.85 890.86) rotate(180)"/>
            <rect class="cls-6" x="319.49" y="450.65" width="5.88" height="5.34" transform="translate(644.85 906.64) rotate(180)"/>
            <rect class="cls-2" x="155.6" y="286.55" width="16.36" height="14.85" transform="translate(327.55 587.96) rotate(180)"/>
            <rect class="cls-2" x="27.82" y="250.34" width="11.21" height="10.18" transform="translate(66.86 510.87) rotate(180)"/>
            <rect class="cls-2" x="47.99" y="346.34" width="11.21" height="10.18" transform="translate(107.19 702.86) rotate(180)"/>
            <rect class="cls-2" x="245.32" y="393.83" width="11.21" height="10.18" transform="translate(501.86 797.85) rotate(180)"/>
            <rect class="cls-2" x="206.42" y="435.46" width="5.22" height="4.74" transform="translate(418.06 875.67) rotate(180)"/>
            <rect class="cls-2" x="244.99" y="329.61" width="5.22" height="4.74" transform="translate(495.2 663.97) rotate(180)"/>
            <rect class="cls-2" x="242.75" y="309.65" width="9.71" height="8.82" transform="translate(495.2 628.11) rotate(180)"/>
            <rect class="cls-2" x="320.31" y="295.87" width="9.71" height="8.82" transform="translate(650.32 600.56) rotate(180)"/>
            <rect class="cls-2" x="167.1" y="404.46" width="9.71" height="8.82" transform="translate(343.91 817.74) rotate(180)"/>
          </g>
        </g>
        <g>
          <g class="cls-4">
            <rect class="cls-7" x="280.79" y="5.87" width="11.88" height="10.79" transform="translate(573.46 22.52) rotate(180)"/>
            <rect class="cls-7" x="112.6" y="58.2" width="5.94" height="5.39" transform="translate(231.15 121.79) rotate(180)"/>
            <rect class="cls-7" x="148.19" y="127.74" width="5.94" height="5.39" transform="translate(302.31 260.87) rotate(180)"/>
            <rect class="cls-7" x="145.22" y="130.43" width="5.94" height="5.39" transform="translate(296.37 266.26) rotate(180)"/>
            <rect class="cls-7" x="324.05" y="195.4" width="5.94" height="5.39" transform="translate(654.03 396.19) rotate(180)"/>
            <rect class="cls-7" x="324.05" y="203.37" width="5.94" height="5.39" transform="translate(654.03 412.14) rotate(180)"/>
            <rect class="cls-1" x="158.96" y="37.09" width="16.53" height="15.01" transform="translate(334.45 89.19) rotate(180)"/>
            <rect class="cls-1" x="29.85" y=".5" width="11.33" height="10.29" transform="translate(71.02 11.29) rotate(180)"/>
            <rect class="cls-1" x="50.22" y="97.5" width="11.33" height="10.29" transform="translate(111.77 205.3) rotate(180)"/>
            <rect class="cls-1" x="249.62" y="145.49" width="11.33" height="10.29" transform="translate(510.57 301.28) rotate(180)"/>
            <rect class="cls-1" x="307.35" y="98.82" width="9.81" height="8.91" transform="translate(624.52 206.56) rotate(180)"/>
            <rect class="cls-1" x="247.02" y="60.42" width="9.81" height="8.91" transform="translate(503.85 129.76) rotate(180)"/>
            <rect class="cls-1" x="170.58" y="156.23" width="9.81" height="8.91" transform="translate(350.97 321.38) rotate(180)"/>
            <rect class="cls-7" x="1.21" y="131.19" width="12.72" height="11.55" transform="translate(15.15 273.93) rotate(180)"/>
            <rect class="cls-1" x="325.39" y="46.5" width="9.81" height="8.91" transform="translate(660.59 101.92) rotate(180)"/>
          </g>
          <g class="cls-3">
            <rect class="cls-6" x="279.58" y="7.55" width="11.88" height="10.79" transform="translate(571.03 25.9) rotate(180)"/>
            <rect class="cls-6" x="111.39" y="59.89" width="5.94" height="5.39" transform="translate(228.72 125.16) rotate(180)"/>
            <rect class="cls-6" x="146.97" y="129.43" width="5.94" height="5.39" transform="translate(299.88 264.24) rotate(180)"/>
            <rect class="cls-6" x="144" y="132.12" width="5.94" height="5.39" transform="translate(293.94 269.64) rotate(180)"/>
            <rect class="cls-6" x="322.83" y="197.09" width="5.94" height="5.39" transform="translate(651.6 399.57) rotate(180)"/>
            <rect class="cls-6" x="322.83" y="205.06" width="5.94" height="5.39" transform="translate(651.6 415.52) rotate(180)"/>
            <rect class="cls-2" x="157.23" y="39.25" width="16.53" height="15.01" transform="translate(330.98 93.5) rotate(180)"/>
            <rect class="cls-2" x="28.12" y="2.66" width="11.33" height="10.29" transform="translate(67.56 15.61) rotate(180)"/>
            <rect class="cls-2" x="48.49" y="99.66" width="11.33" height="10.29" transform="translate(108.31 209.61) rotate(180)"/>
            <rect class="cls-2" x="247.89" y="147.65" width="11.33" height="10.29" transform="translate(507.11 305.59) rotate(180)"/>
            <rect class="cls-2" x="305.62" y="100.98" width="9.81" height="8.91" transform="translate(621.06 210.87) rotate(180)"/>
            <rect class="cls-2" x="245.29" y="62.58" width="9.81" height="8.91" transform="translate(500.39 134.08) rotate(180)"/>
            <rect class="cls-2" x="323.66" y="48.66" width="9.81" height="8.91" transform="translate(657.13 106.24) rotate(180)"/>
            <rect class="cls-2" x="168.85" y="158.39" width="9.81" height="8.91" transform="translate(347.51 325.69) rotate(180)"/>
            <rect class="cls-6" y="132.88" width="12.72" height="11.55" transform="translate(12.72 277.31) rotate(180)"/>
          </g>
        </g>
        <g>
          <g class="cls-4">
            <rect class="cls-7" x="424.26" y="275.33" width="11.76" height="10.68" transform="translate(860.28 561.33) rotate(180)"/>
            <rect class="cls-7" x="415.81" y="430.62" width="7.35" height="6.67" transform="translate(838.98 867.91) rotate(180)"/>
            <rect class="cls-7" x="412.14" y="427.28" width="7.35" height="6.67" transform="translate(831.63 861.23) rotate(180)"/>
            <rect class="cls-7" x="635.03" y="253.52" width="11.76" height="10.68" transform="translate(1281.81 517.71) rotate(180)"/>
            <rect class="cls-7" x="489.99" y="253.52" width="5.88" height="5.34" transform="translate(985.86 512.37) rotate(180)"/>
            <rect class="cls-7" x="677.83" y="441.09" width="5.88" height="5.34" transform="translate(1361.54 887.51) rotate(180)"/>
            <rect class="cls-7" x="677.83" y="448.98" width="5.88" height="5.34" transform="translate(1361.54 903.3) rotate(180)"/>
            <rect class="cls-1" x="406.84" y="344.2" width="11.21" height="10.18" transform="translate(824.9 698.59) rotate(180)"/>
            <rect class="cls-1" x="604.18" y="391.7" width="11.21" height="10.18" transform="translate(1219.57 793.58) rotate(180)"/>
            <rect class="cls-1" x="654.64" y="427.36" width="5.25" height="4.77" transform="translate(1314.52 859.48) rotate(180)"/>
            <rect class="cls-1" x="603.85" y="327.48" width="5.22" height="4.74" transform="translate(1212.92 659.7) rotate(180)"/>
            <rect class="cls-1" x="601.6" y="307.51" width="9.71" height="8.82" transform="translate(1212.92 623.84) rotate(180)"/>
            <rect class="cls-1" x="525.96" y="402.33" width="9.71" height="8.82" transform="translate(1061.62 813.47) rotate(180)"/>
            <rect class="cls-7" x="358.35" y="377.54" width="12.59" height="11.43" transform="translate(729.28 766.52) rotate(180)"/>
            <rect class="cls-7" x="490.29" y="340.08" width="12.59" height="11.43" transform="translate(993.17 691.59) rotate(180)"/>
            <rect class="cls-7" x="679.33" y="392.66" width="8.21" height="7.46" transform="translate(1366.88 792.78) rotate(180)"/>
          </g>
          <g class="cls-3">
            <rect class="cls-6" x="423.06" y="277" width="11.76" height="10.68" transform="translate(857.87 564.68) rotate(180)"/>
            <rect class="cls-6" x="414.61" y="432.29" width="7.35" height="6.67" transform="translate(836.57 871.25) rotate(180)"/>
            <rect class="cls-6" x="410.94" y="428.95" width="7.35" height="6.67" transform="translate(829.23 864.58) rotate(180)"/>
            <rect class="cls-6" x="633.82" y="255.19" width="11.76" height="10.68" transform="translate(1279.4 521.05) rotate(180)"/>
            <rect class="cls-6" x="488.79" y="255.19" width="5.88" height="5.34" transform="translate(983.46 515.71) rotate(180)"/>
            <rect class="cls-6" x="676.63" y="442.76" width="5.88" height="5.34" transform="translate(1359.14 890.86) rotate(180)"/>
            <rect class="cls-6" x="676.63" y="450.65" width="5.88" height="5.34" transform="translate(1359.14 906.64) rotate(180)"/>
            <rect class="cls-2" x="405.13" y="346.34" width="11.21" height="10.18" transform="translate(821.47 702.86) rotate(180)"/>
            <rect class="cls-2" x="602.46" y="393.83" width="11.21" height="10.18" transform="translate(1216.14 797.85) rotate(180)"/>
            <rect class="cls-2" x="652.92" y="429.49" width="5.25" height="4.77" transform="translate(1311.09 863.75) rotate(180)"/>
            <rect class="cls-2" x="602.13" y="329.61" width="5.22" height="4.74" transform="translate(1209.49 663.97) rotate(180)"/>
            <rect class="cls-2" x="599.89" y="309.65" width="9.71" height="8.82" transform="translate(1209.49 628.11) rotate(180)"/>
            <rect class="cls-2" x="524.24" y="404.46" width="9.71" height="8.82" transform="translate(1058.2 817.74) rotate(180)"/>
            <rect class="cls-6" x="357.14" y="379.21" width="12.59" height="11.43" transform="translate(726.87 769.86) rotate(180)"/>
            <rect class="cls-6" x="489.09" y="341.75" width="12.59" height="11.43" transform="translate(990.77 694.93) rotate(180)"/>
            <rect class="cls-6" x="678.13" y="394.34" width="8.21" height="7.46" transform="translate(1364.47 796.13) rotate(180)"/>
          </g>
        </g>
        <g>
          <g class="cls-4">
            <rect class="cls-7" x="424.96" y="27.91" width="11.88" height="10.79" transform="translate(861.8 66.6) rotate(180)"/>
            <rect class="cls-7" x="416.43" y="184.82" width="7.42" height="6.74" transform="translate(840.28 376.38) rotate(180)"/>
            <rect class="cls-7" x="412.72" y="181.45" width="7.42" height="6.74" transform="translate(832.86 369.64) rotate(180)"/>
            <rect class="cls-7" x="637.93" y="5.87" width="11.88" height="10.79" transform="translate(1287.75 22.52) rotate(180)"/>
            <rect class="cls-7" x="566.14" y="114.02" width="5.94" height="5.39" transform="translate(1138.23 233.43) rotate(180)"/>
            <rect class="cls-7" x="469.75" y="58.2" width="5.94" height="5.39" transform="translate(945.43 121.79) rotate(180)"/>
            <rect class="cls-7" x="491.38" y="5.87" width="5.94" height="5.39" transform="translate(988.71 17.12) rotate(180)"/>
            <rect class="cls-7" x="681.19" y="195.4" width="5.94" height="5.39" transform="translate(1368.32 396.19) rotate(180)"/>
            <rect class="cls-7" x="681.19" y="203.37" width="5.94" height="5.39" transform="translate(1368.32 412.14) rotate(180)"/>
            <rect class="cls-1" x="407.36" y="97.5" width="11.33" height="10.29" transform="translate(826.06 205.3) rotate(180)"/>
            <rect class="cls-1" x="606.43" y="80.6" width="5.28" height="4.79" transform="translate(1218.14 166) rotate(180)"/>
            <rect class="cls-1" x="529.99" y="200.51" width="5.28" height="4.79" transform="translate(1065.26 405.81) rotate(180)"/>
            <rect class="cls-1" x="664.5" y="98.82" width="9.81" height="8.91" transform="translate(1338.81 206.56) rotate(180)"/>
            <rect class="cls-1" x="604.16" y="60.42" width="9.81" height="8.91" transform="translate(1218.14 129.76) rotate(180)"/>
            <rect class="cls-1" x="527.72" y="156.23" width="9.81" height="8.91" transform="translate(1065.26 321.38) rotate(180)"/>
            <rect class="cls-7" x="358.36" y="131.19" width="12.72" height="11.55" transform="translate(729.43 273.93) rotate(180)"/>
            <rect class="cls-7" x="491.69" y="93.33" width="12.72" height="11.55" transform="translate(996.09 198.22) rotate(180)"/>
          </g>
          <g class="cls-3">
            <rect class="cls-6" x="423.75" y="29.6" width="11.88" height="10.79" transform="translate(859.38 69.98) rotate(180)"/>
            <rect class="cls-6" x="415.21" y="186.51" width="7.42" height="6.74" transform="translate(837.85 379.76) rotate(180)"/>
            <rect class="cls-6" x="411.5" y="183.14" width="7.42" height="6.74" transform="translate(830.43 373.02) rotate(180)"/>
            <rect class="cls-6" x="636.72" y="7.55" width="11.88" height="10.79" transform="translate(1285.32 25.9) rotate(180)"/>
            <rect class="cls-6" x="564.93" y="115.7" width="5.94" height="5.39" transform="translate(1135.8 236.8) rotate(180)"/>
            <rect class="cls-6" x="468.53" y="59.89" width="5.94" height="5.39" transform="translate(943.01 125.16) rotate(180)"/>
            <rect class="cls-6" x="490.17" y="7.55" width="5.94" height="5.39" transform="translate(986.28 20.5) rotate(180)"/>
            <rect class="cls-6" x="679.97" y="197.09" width="5.94" height="5.39" transform="translate(1365.89 399.57) rotate(180)"/>
            <rect class="cls-6" x="679.97" y="205.06" width="5.94" height="5.39" transform="translate(1365.89 415.52) rotate(180)"/>
            <rect class="cls-2" x="405.63" y="99.66" width="11.33" height="10.29" transform="translate(822.59 209.61) rotate(180)"/>
            <rect class="cls-2" x="604.7" y="82.76" width="5.28" height="4.79" transform="translate(1214.67 170.31) rotate(180)"/>
            <rect class="cls-2" x="528.26" y="202.67" width="5.28" height="4.79" transform="translate(1061.8 410.13) rotate(180)"/>
            <rect class="cls-2" x="662.76" y="100.98" width="9.81" height="8.91" transform="translate(1335.34 210.87) rotate(180)"/>
            <rect class="cls-2" x="602.43" y="62.58" width="9.81" height="8.91" transform="translate(1214.67 134.08) rotate(180)"/>
            <rect class="cls-2" x="525.99" y="158.39" width="9.81" height="8.91" transform="translate(1061.8 325.69) rotate(180)"/>
            <rect class="cls-6" x="357.14" y="132.88" width="12.72" height="11.55" transform="translate(727 277.31) rotate(180)"/>
            <rect class="cls-6" x="490.47" y="95.02" width="12.72" height="11.55" transform="translate(993.66 201.6) rotate(180)"/>
          </g>
        </g>
      </g>
    </g>
  </g>
</svg>